<?xml version="1.0" encoding="UTF-8" standalone="no"?>
<!-- Created with Inkscape (http://www.inkscape.org/) -->

<svg
   width="512"
   height="512"
   viewBox="0 0 512 512"
   version="1.1"
   id="svg1"
   xml:space="preserve"
   inkscape:version="1.3 (0e150ed6c4, 2023-07-21)"
   sodipodi:docname="logo.svg"
   xmlns:inkscape="http://www.inkscape.org/namespaces/inkscape"
   xmlns:sodipodi="http://sodipodi.sourceforge.net/DTD/sodipodi-0.dtd"
   xmlns="http://www.w3.org/2000/svg"
   xmlns:svg="http://www.w3.org/2000/svg"><sodipodi:namedview
     id="namedview1"
     bordercolor="currentColor"
     borderopacity="0.25"
     inkscape:showpageshadow="2"
     inkscape:pageopacity="0.0"
     inkscape:pagecheckerboard="0"
     inkscape:deskcolor="#d1d1d1"
     inkscape:document-units="px"
     inkscape:zoom="0.66947268"
     inkscape:cx="94.850771"
     inkscape:cy="354.75682"
     inkscape:window-width="2560"
     inkscape:window-height="1009"
     inkscape:window-x="-8"
     inkscape:window-y="-8"
     inkscape:window-maximized="1"
     inkscape:current-layer="layer1" /><defs
     id="defs1" /><g
     inkscape:label="Camada 1"
     inkscape:groupmode="layer"
     id="layer1"><path
       style="fill:currentColor;stroke-width:0.649837"
       d="M 234.03807,511.38319 C 189.77145,507.51248 145.74464,491.58292 109.52205,466.33147 86.118772,450.01658 62.119298,426.06153 45.930038,402.85717 20.147908,365.90317 4.7182487,323.23566 0.64606544,277.63383 -0.20664084,268.08552 -0.21743332,243.70581 0.62656273,234.44233 5.3072473,183.08762 24.184102,135.9458 56.152811,95.774915 63.649705,86.35455 85.276577,64.543163 94.249899,57.352792 127.86081,30.420204 166.11984,12.63489 207.76219,4.5848076 273.34427,-8.0931923 342.64818,5.8095135 397.88223,42.723836 c 15.84263,10.588029 28.22854,20.892467 41.61847,34.624431 40.52132,41.556393 64.53714,92.481293 71.6341,151.898093 1.29803,10.86711 1.09337,45.747 -0.33154,56.50616 -4.14202,31.27565 -12.07325,57.93166 -24.90338,83.69777 -40.02976,80.38977 -116.79752,133.12831 -206.24563,141.68835 -10.8006,1.03361 -35.10255,1.16389 -45.61644,0.24455 z m 44.37453,-22.4502 c 0.26821,-0.15927 0.48762,-1.29531 0.48762,-2.5245 v -2.23491 h -3.16714 -3.16717 l 3.38672,-10.87905 c 1.8627,-5.98349 3.60735,-11.55911 3.87699,-12.39027 l 0.49027,-1.5112 -5.42362,0.45768 c -6.85671,0.57863 -7.83514,1.06111 -7.57463,3.73526 0.19428,1.99446 0.2864,2.05213 2.96375,1.85566 1.51978,-0.11148 2.76327,-0.0131 2.76327,0.21773 0,0.23128 -1.60921,5.61418 -3.57598,11.96197 -1.96677,6.34782 -3.57597,11.76515 -3.57597,12.03853 0,0.49583 11.59056,-0.17733 12.51589,-0.7269 z m -41.48263,-0.3753 c 1.26135,-4.0901 1.19166,-4.23715 -2.23187,-4.7075 l -3.23538,-0.4445 5.91204,-11.34218 c 3.25164,-6.23819 5.79697,-11.45714 5.65632,-11.59764 -0.57334,-0.57274 -12.08621,-1.10357 -12.41183,-0.57228 -0.1933,0.31537 -0.45403,1.45021 -0.57938,2.52187 -0.21876,1.86989 -0.11643,1.95654 2.53531,2.14822 1.51978,0.10986 2.76323,0.35652 2.76323,0.54815 0,0.19163 -2.64548,5.41601 -5.87885,11.6097 l -5.87887,11.26127 2.79053,0.37174 c 1.5348,0.20447 4.25341,0.4638 6.04141,0.57632 1.78799,0.11249 3.47949,0.25724 3.75891,0.32161 0.27943,0.0643 0.62072,-0.24826 0.75843,-0.69478 z m 73.46149,-4.36802 c 1.47758,-0.5612 1.66777,-0.99696 1.66777,-3.82124 0,-2.75684 0.19777,-3.24075 1.46289,-3.57942 2.31587,-0.61998 2.37934,-0.56844 3.17194,2.57597 0.72584,2.8795 0.82341,2.97119 2.7523,2.5858 1.09988,-0.21974 2.23786,-0.63735 2.52882,-0.92803 0.43076,-0.43029 -7.70826,-25.38345 -8.9162,-27.33589 -0.19561,-0.31617 -1.32904,-0.26721 -2.56156,0.11073 l -2.21072,0.67779 -0.38682,9.81554 c -0.90503,22.96578 -1.11741,21.26952 2.49158,19.89882 z m 1.71358,-15.44161 0.046,-3.73462 0.83658,2.27325 c 1.84207,5.00551 1.85732,5.19597 0.41597,5.19597 -1.20825,0 -1.33955,-0.37766 -1.29836,-3.7346 z m -111.94198,-0.51901 c 2.98108,-7.3406 5.26051,-13.50603 5.06539,-13.70094 -0.19511,-0.19493 -1.32417,-0.39978 -2.50899,-0.45525 l -2.15424,-0.10084 -5.31517,12.98993 c -2.92336,7.14446 -5.33968,13.18768 -5.36959,13.42942 -0.0608,0.49205 1.54554,0.995 3.54185,1.1089 1.1258,0.0642 2.12002,-1.89322 6.74075,-13.27122 z m 152.88955,1.96369 c 1.05505,-0.545 1.91825,-1.07837 1.91825,-1.18523 0,-0.10694 -0.73083,-2.34077 -1.62405,-4.9642 -0.89321,-2.62344 -1.47038,-4.92338 -1.28257,-5.11097 0.1878,-0.18763 2.19732,1.49631 4.46559,3.74207 l 4.12413,4.08319 2.03476,-1.05115 c 1.11914,-0.5781 2.03479,-1.30004 2.03479,-1.60431 0,-0.30428 -2.16348,-2.4875 -4.80773,-4.85161 l -4.80773,-4.29841 1.23175,-2.4135 c 1.49306,-2.92544 1.55795,-5.29768 0.23171,-8.4685 -1.53381,-3.66706 -2.7808,-4.71177 -5.62408,-4.71177 -2.34801,0 -8.44097,2.50012 -9.23982,3.79136 -0.35909,0.5804 8.57737,28.03394 9.12539,28.03394 0.16575,0 1.16458,-0.4459 2.21961,-0.99091 z m -4.53602,-20.60463 c -1.28722,-3.80771 -1.30338,-4.10946 -0.26051,-4.87122 0.61145,-0.44663 1.30304,-0.81207 1.53686,-0.81207 0.76506,0 2.38554,2.23937 2.77654,3.83694 0.41614,1.70034 -1.04859,5.90551 -2.05698,5.90551 -0.34301,0 -1.24117,-1.82663 -1.99591,-4.05916 z M 155.69183,461.2329 c 2.36692,-3.94921 2.74682,-4.29677 4.22615,-3.86629 0.89398,0.26016 3.05138,0.47652 4.79422,0.48079 2.92703,0.007 3.36094,-0.20849 5.68747,-2.82742 2.97283,-3.34644 4.32254,-7.13915 3.44786,-9.68845 -0.43365,-1.26385 -1.77749,-2.33482 -4.82709,-3.84698 -2.3244,-1.15255 -4.52838,-2.10244 -4.89779,-2.11086 -0.68179,-0.0155 -16.19065,24.59951 -15.7662,25.02351 0.5223,0.52178 3.48073,1.49179 4.0845,1.33926 0.35759,-0.0904 1.82048,-2.11695 3.25088,-4.50356 z m 6.26796,-8.16501 c -0.70019,-0.44319 -0.39775,-1.31876 1.45483,-4.21178 2.51264,-3.9238 3.00669,-4.20743 4.58412,-2.63166 1.27044,1.26913 1.27923,1.12484 -0.25096,4.12111 -1.58327,3.10022 -3.65294,4.07368 -5.78799,2.72233 z m 232.02165,-6.37231 c 0,-0.39523 -13.13833,-24.54447 -13.65365,-25.09647 -0.56296,-0.603 -3.90111,1.32381 -3.90111,2.25177 0,0.53921 7.45777,14.71667 11.82436,22.47845 l 1.91207,3.39876 1.90916,-1.41004 c 1.05003,-0.77551 1.90917,-1.50562 1.90917,-1.62247 z M 100.30711,423.57772 c 2.74156,-9.87209 2.53485,-9.54935 6.11776,-9.55215 7.75552,-0.006 11.6742,-7.393 6.20267,-11.69241 -2.18429,-1.71635 -5.99307,-1.69251 -8.21242,0.0515 -0.94248,0.74057 -2.44904,2.60014 -3.34793,4.13238 -1.497298,2.55226 -1.903204,2.81767 -4.840902,3.16523 -4.178437,0.49435 -6.932325,1.96443 -8.504216,4.53974 -1.800337,2.94956 -1.607992,4.04521 1.246913,7.1026 2.506014,2.68378 2.531015,2.69313 4.22614,1.58362 2.039575,-1.33499 2.16561,-2.43498 0.404864,-3.53345 -1.718381,-1.072 -1.651426,-3.0789 0.144732,-4.33562 1.401512,-0.98063 3.756372,-1.38572 3.756372,-0.64617 0,0.2007 -0.76854,3.03358 -1.707897,6.29528 l -1.707896,5.93035 1.744145,1.49869 c 0.959299,0.82428 1.981931,1.49869 2.272522,1.49869 0.290591,0 1.282943,-2.71718 2.205203,-6.03819 z m 4.91295,-14.59057 c 1.04612,-1.95264 3.23854,-3.57816 4.28502,-3.177 1.73274,0.66422 1.08731,2.40201 -1.25524,3.37978 -3.04203,1.2697 -3.79177,1.21953 -3.02978,-0.20278 z m 314.08652,17.73978 1.49526,-1.58997 -1.68186,-2.86689 -1.68188,-2.8669 1.47912,-1.38808 1.47911,-1.38812 1.86825,1.94801 c 2.24502,2.34083 2.91907,2.40496 4.7553,0.45242 l 1.40651,-1.49557 -2.75606,-2.61472 c -5.53181,-5.24814 -18.59547,-16.477 -19.16929,-16.477 -0.32438,0 -1.26202,0.71482 -2.08367,1.58851 l -1.49391,1.58854 7.06962,13.34397 c 3.88828,7.33919 7.23805,13.34663 7.44392,13.34987 0.20586,0.003 1.04715,-0.70957 1.86958,-1.58407 z m -4.88845,-12.53656 c -0.37497,-0.62513 -1.38698,-2.3057 -2.24893,-3.73458 l -1.56719,-2.598 3.41021,2.83533 c 2.72388,2.26468 3.25985,3.01631 2.6631,3.73461 -0.98202,1.18202 -1.43437,1.13446 -2.25719,-0.23736 z M 189.0816,403.36002 c 2.49876,-1.2908 3.34518,-3.57615 3.34518,-9.03196 0,-3.96647 0.55411,-6.35415 3.54867,-15.2914 1.95179,-5.82503 4.28193,-11.84083 5.17811,-13.36845 1.98555,-3.38457 7.8101,-8.80992 11.20653,-10.43851 3.4153,-1.63765 27.7338,-9.31782 28.35158,-8.95389 0.2733,0.16102 1.15,1.51506 1.94819,3.00902 1.36024,2.54588 1.47182,3.73701 1.7787,18.98493 0.36307,18.03962 0.58416,19.00203 4.76684,20.74783 2.7663,1.15462 5.13539,0.60001 7.36627,-1.72449 l 1.84801,-1.92552 0.21597,-10.91434 0.21596,-10.91434 2.85965,0.322 c 2.03238,0.22882 3.34922,9.9e-4 4.5521,-0.78581 2.93114,-1.91855 3.53343,-4.54183 3.54436,-15.4372 0.006,-5.45913 0.22491,-10.2424 0.48763,-10.62947 0.26273,-0.38708 16.13067,-5.6252 35.26211,-11.64023 19.13144,-6.01503 35.96373,-11.47277 37.4051,-12.12831 5.12048,-2.32886 9.55297,-7.18506 11.00933,-12.06182 0.40789,-1.36581 0.24227,-1.46136 -2.53319,-1.46136 -2.20367,0 -2.96961,0.25078 -2.96961,0.97236 0,1.49501 -4.47681,6.10343 -7.43267,7.65115 -1.81835,0.95211 -3.86974,1.39414 -6.56348,1.41431 -5.49825,0.0412 -9.6451,-2.14172 -12.63034,-6.64865 l -2.24489,-3.38917 h -5.52472 c -3.0386,0 -5.24678,0.24498 -4.90704,0.54438 0.33971,0.29943 2.37314,1.87445 4.51872,3.50006 2.14558,1.62561 4.58595,3.69288 5.42306,4.59393 l 1.52201,1.63826 -24.07479,7.8592 c -16.42566,5.36217 -24.68003,8.36795 -25.97966,9.46037 -1.04766,0.88063 -2.6017,3.1423 -3.45345,5.02598 -1.38473,3.06241 -1.5831,4.62038 -1.87451,14.7222 -0.28371,9.83519 -0.47314,11.38988 -1.46369,12.01235 -0.82823,0.52047 -1.4474,0.52018 -2.27562,-10e-4 -0.99225,-0.62445 -1.16079,-2.03238 -1.31752,-11.00591 -0.14707,-8.42051 -0.37209,-10.50222 -1.23859,-11.45869 -1.51355,-1.6707 -2.62925,-1.44929 -3.76641,0.74744 -0.83206,1.60735 -0.99197,5.47354 -0.99197,23.98496 0,19.19648 -0.13299,22.20156 -1.0217,23.08936 -0.56194,0.56135 -1.27248,1.02064 -1.57901,1.02064 -0.3065,0 -1.01705,-0.45929 -1.57899,-1.02064 -0.8669,-0.866 -1.02287,-3.20318 -1.02943,-15.42553 -0.008,-15.91156 -0.57908,-19.61344 -3.71929,-24.13133 -2.40444,-3.45933 -6.56899,-5.53671 -11.09948,-5.53671 -4.04078,0 -23.91272,6.18584 -28.6943,8.9321 -6.81917,3.91658 -11.26798,9.64063 -14.33337,18.44207 -2.56789,7.37298 -3.25172,12.2316 -3.2575,23.14452 -0.004,7.98556 -0.15286,9.33242 -1.06855,9.68344 -2.18087,0.83601 -3.1457,-0.70949 -3.56625,-5.71255 -0.48718,-5.79546 -1.51538,-9.1419 -8.36057,-27.21075 -6.33502,-16.72217 -7.14579,-19.89094 -7.14579,-27.92833 0,-7.77082 1.24598,-13.12713 4.68358,-20.13439 2.1812,-4.44612 3.81086,-6.61662 8.37237,-11.15096 l 5.66401,-5.63027 2.71746,1.34308 c 5.34539,2.64193 15.94628,1.47055 19.20052,-2.12159 1.14513,-1.26401 1.03171,-1.2756 -12.43626,-1.27145 l -13.59193,0.004 -3.09103,2.64662 c -6.65018,5.69407 -12.48691,15.30807 -14.81558,24.40364 -1.54208,6.02317 -1.69826,16.86772 -0.32588,22.6278 0.51066,2.14333 3.68795,11.21855 7.06063,20.16715 6.56043,17.40654 7.59589,21.04537 7.59589,26.69348 0,3.23405 0.22757,3.83257 2.2106,5.81351 2.46272,2.46015 5.03113,2.86698 8.09792,1.28274 z m 0.52867,-49.69383 c 3.44102,-1.56073 7.80073,-6.01836 8.35596,-8.54366 0.52034,-2.36663 -0.9729,-4.94548 -3.18474,-5.50005 -5.00343,-1.25445 -14.01692,5.03081 -15.09337,10.52487 -0.8518,4.34755 4.16914,6.12819 9.92215,3.51884 z m -5.7146,-3.77593 c 0.80281,-1.47867 3.91902,-4.35205 5.72513,-5.27897 1.6835,-0.86402 4.10635,-0.96254 4.10635,-0.16695 0,2.05965 -6.41111,6.58255 -9.33064,6.58255 -0.86635,0 -0.97907,-0.2558 -0.50084,-1.13663 z m 31.12721,-19.14345 c 4.50122,-2.1136 6.23295,-5.96519 4.72889,-10.51773 -2.20842,-6.68461 -16.08619,-8.74695 -23.57016,-3.50272 -3.89436,2.72889 -3.84047,10.03135 0.0947,12.83049 4.69411,3.33901 13.04151,3.86886 18.74658,1.18996 z m -13.81871,-6.0034 c -1.43039,-0.53669 -2.66356,-0.98021 -2.74038,-0.98558 -0.0768,-0.006 -0.44534,-0.58034 -0.81894,-1.27769 -1.68378,-3.14286 6.22557,-6.07319 12.5663,-4.65568 3.84361,0.85926 6.44023,2.78183 5.84609,4.32852 -1.08938,2.8359 -10.0389,4.39672 -14.85307,2.59043 z m -20.15271,6.79755 c 2.24307,-0.85194 1.98504,-3.23091 -0.47797,-4.40647 -1.39571,-0.66615 -2.09119,-0.68137 -3.25088,-0.0712 -2.80571,1.47621 -3.26391,3.54454 -0.98769,4.45852 1.95518,0.78507 2.69212,0.78805 4.71654,0.0191 z m 72.48502,-6.1609 c 0.4414,-0.53128 0.63269,-1.4081 0.42511,-1.9485 -0.30049,-0.78223 -1.64477,-0.98251 -6.59491,-0.98251 -6.44239,0 -7.52932,0.48195 -6.59172,2.92274 0.53831,1.40135 11.59819,1.40852 12.76152,0.008 z m 15.24471,-12.73082 c 1.54559,-0.38877 3.8695,-1.57914 5.16425,-2.64526 2.25988,-1.86084 2.35409,-2.10547 2.35409,-6.11286 v -4.17442 h -2.70148 c -2.65176,0 -2.68002,0.0237 -1.5357,1.2868 1.0057,1.11012 1.04185,1.43605 0.2633,2.37383 -1.47788,1.78017 -4.83618,2.83431 -9.02964,2.83431 -4.19345,0 -7.55178,-1.05414 -9.02966,-2.83431 -0.77854,-0.93778 -0.74238,-1.26371 0.26331,-2.37383 1.14396,-1.26275 1.11621,-1.2868 -1.48405,-1.2868 -2.43054,0 -2.68619,0.16543 -3.08939,1.99924 -1.81565,8.258 7.63649,13.74766 18.82497,10.9333 z m 24.46566,-1.26448 c 0.69168,-0.36978 1.25762,-1.00437 1.25762,-1.41022 0,-1.35872 -2.13492,-3.1134 -3.78809,-3.1134 -1.78898,0 -4.01403,1.65805 -4.01403,2.99114 0,1.88133 4.09736,2.84079 6.5445,1.53248 z m -62.6008,-4.75376 c 0.70194,-0.7012 0.64634,-1.08811 -0.31639,-2.20229 -1.79143,-2.07327 -3.64328,-2.33018 -5.61699,-0.77928 -0.95018,0.74662 -1.7276,1.78413 -1.7276,2.30555 0,2.12428 5.70707,2.62789 7.66098,0.67602 z m -39.90179,-10.71901 c 0.18961,-0.30649 0.78674,-5.34819 1.32696,-11.20382 0.54022,-5.85562 1.15894,-11.93686 1.37496,-13.51387 l 0.39273,-2.86729 1.41681,2.54254 c 1.91838,3.44264 4.98982,4.9585 9.38882,4.6337 3.87925,-0.2864 5.95258,-1.54738 8.94406,-5.43965 6.81178,-8.86302 9.14833,-36.32786 3.71419,-43.6584 -0.69528,-0.93793 -2.26126,-2.38879 -3.47997,-3.22416 -1.85027,-1.26826 -2.83461,-1.4756 -5.96641,-1.25668 -3.30144,0.23077 -4.0552,0.55933 -6.29469,2.74386 l -2.54413,2.48166 -0.20706,-2.52399 -0.20708,-2.52399 -4.8763,0.22651 c -2.68198,0.12451 -5.05487,0.41685 -5.27308,0.64949 -0.3456,0.36846 -8.45707,70.53772 -8.40165,72.67944 0.0244,0.94509 10.11597,1.18544 10.69184,0.25465 z m 8.33315,-31.0292 c -3.01402,-1.29933 -3.72451,-12.6478 -1.47395,-23.5435 1.46085,-7.07249 2.90754,-9.1702 6.3243,-9.1702 4.53934,0 6.18197,6.48608 4.51049,17.8101 -1.18036,7.99667 -2.05527,11.24667 -3.56105,13.22804 -1.07827,1.41889 -4.26177,2.33859 -5.79979,1.67556 z m -83.00268,8.90166 c 4.76378,-2.10504 7.16645,-4.24194 8.99327,-7.99855 3.31831,-6.82366 2.99754,-11.2306 -2.19428,-30.14586 -3.12188,-11.37393 -3.32857,-14.66586 -1.01585,-16.17963 0.88039,-0.57624 2.79327,-1.2075 4.25087,-1.4028 3.22836,-0.43256 3.66371,-1.16681 4.25681,-7.17948 l 0.4625,-4.68888 h -3.2664 c -5.22831,0 -11.51885,2.26152 -14.45834,5.19794 -2.73486,2.73199 -4.54928,7.4519 -4.54928,11.83422 0,3.60885 1.69378,11.28084 4.32549,19.59242 1.35338,4.27427 2.42736,9.2024 2.63427,12.08762 0.45728,6.37682 -0.35244,7.45493 -6.56437,8.73999 -2.46453,0.50984 -4.73069,1.17646 -5.03591,1.48138 -0.30524,0.3049 -0.74934,2.85117 -0.98689,5.65837 l -0.43189,5.10398 5.2222,-0.35756 c 3.22688,-0.22095 6.42023,-0.88697 8.3578,-1.74316 z m 39.03585,-0.30958 c 1.66135,-0.92758 3.11066,-1.68652 3.22066,-1.68652 0.10999,0 0.29259,0.80376 0.40573,1.78612 l 0.20573,1.78612 4.87634,-0.22415 c 2.68198,-0.12334 5.07595,-0.41554 5.31992,-0.64949 0.64816,-0.6215 6.36555,-51.65334 5.84678,-52.18666 -0.24135,-0.2481 -2.71142,-0.27858 -5.48906,-0.0678 -4.45178,0.3379 -5.08414,0.5453 -5.33635,1.75009 -0.15737,0.75172 -1.22096,9.98881 -2.36354,20.52689 -1.28791,11.87841 -2.39128,19.50254 -2.90326,20.06111 -1.05609,1.1522 -7.58358,1.29174 -8.91185,0.19054 -1.80512,-1.49655 -1.74067,-4.88221 0.44729,-23.49913 1.19652,-10.18085 1.96787,-18.73973 1.71413,-19.01974 -0.25374,-0.27999 -2.77141,-0.27999 -5.59483,0 l -5.13349,0.5091 -2.12723,18.1859 c -1.17,10.00223 -2.04979,20.2318 -1.95511,22.73236 0.20896,5.51889 1.87918,9.10245 5.06361,10.86426 3.06354,1.69495 8.60926,1.23302 12.71453,-1.05906 z m 84.23412,0.99716 c 0.23669,-0.22574 1.39105,-9.14434 2.56524,-19.81914 l 2.13492,-19.40868 2.31109,-0.99738 c 1.37328,-0.59264 4.3743,-1.01891 7.39553,-1.05043 6.0263,-0.0628 6.1706,-0.21122 6.43421,-6.61352 l 0.18451,-4.48098 -2.57208,-0.20956 c -4.06272,-0.331 -6.4779,0.38894 -9.7965,2.92023 l -3.08661,2.35436 0.30232,-2.05772 c 0.16626,-1.13174 -0.0289,-2.33228 -0.43363,-2.66787 -0.40975,-0.33969 -2.80389,-0.43693 -5.40144,-0.2194 -3.50194,0.29328 -4.73925,0.65098 -4.96127,1.43434 -0.68406,2.41368 -5.74067,50.03576 -5.40554,50.9082 0.29276,0.76209 1.32909,0.8906 5.13287,0.63644 2.62133,-0.17513 4.95971,-0.50314 5.19638,-0.72889 z m 51.01566,-0.0778 c 1.94728,-0.69779 2.05161,-0.92156 2.4868,-5.33334 0.50757,-5.14566 -0.004,-6.041 -2.83966,-4.96257 -0.92383,0.35144 -3.12769,0.91372 -4.89745,1.2495 -6.2941,1.1942 -9.20262,-1.19365 -9.92079,-8.14475 l -0.35105,-3.3977 4.46918,-0.42157 c 2.45805,-0.23185 7.45781,-0.42363 11.1106,-0.42617 6.05164,-0.004 6.70549,-0.12422 7.36284,-1.35116 0.40869,-0.76286 0.77088,-5.19691 0.83559,-10.22955 0.0943,-7.33661 -0.0898,-9.33531 -1.0581,-11.48102 -2.49206,-5.52276 -6.43925,-8.1187 -12.3447,-8.1187 -10.66692,0 -17.21832,7.13195 -19.68863,21.43337 -1.49181,8.63651 -1.05068,19.9544 0.93921,24.09732 1.78303,3.7122 4.37917,6.24804 7.64896,7.47123 2.86818,1.07294 12.83803,0.83678 16.2472,-0.38489 z m -14.41928,-31.70871 c 1.39349,-7.91392 3.94884,-11.38608 8.12129,-11.03507 1.82212,0.15329 2.50536,0.60259 3.25798,2.14245 0.88805,1.817 1.40621,9.59838 0.68235,10.24713 -0.1788,0.16025 -3.0608,0.46051 -6.40446,0.66725 l -6.07936,0.3759 z m 41.98653,31.6393 c 0.18804,-0.28499 1.32157,-9.52126 2.51895,-20.52503 1.19738,-11.0038 2.4437,-20.34166 2.76962,-20.75082 0.94503,-1.18646 4.98326,-1.66768 7.37566,-0.87895 3.75756,1.23882 3.82671,2.43304 1.37254,23.70574 -1.32563,11.49056 -1.9329,18.99002 -1.55734,19.23194 0.88289,0.56863 9.86364,-0.14399 10.3016,-0.81749 0.45693,-0.70258 4.52434,-36.38098 4.51582,-39.6117 -0.006,-2.28857 0.0811,-2.37494 2.80667,-2.78324 3.03172,-0.45416 4.66181,-0.0886 6.4521,1.44751 1.58649,1.36115 1.47849,4.55294 -0.82698,24.44071 -1.07407,9.26538 -1.7297,17.0527 -1.45695,17.30516 0.27276,0.25246 2.74402,0.3067 5.49164,0.12057 l 4.99568,-0.33855 0.36158,-2.35296 c 0.19888,-1.29413 1.2851,-10.39047 2.41384,-20.2141 2.23223,-19.42754 2.14219,-22.58796 -0.75962,-26.65893 -3.38917,-4.75466 -10.13294,-5.19735 -16.67693,-1.09475 l -3.78254,2.37139 -1.62544,-1.857 c -3.58534,-4.09612 -8.10894,-4.43223 -14.54553,-1.08077 l -4.2372,2.20627 -0.19873,-2.04389 -0.19874,-2.04391 -4.87633,0.22374 c -2.68198,0.12305 -5.07788,0.41533 -5.32424,0.6495 -0.53253,0.50618 -6.3905,51.51654 -5.99038,52.16329 0.36963,0.59743 10.24665,-0.15497 10.68125,-0.81366 z m 82.96325,-0.65998 c 3.60198,-1.85171 6.9096,-6.26878 8.38104,-11.1922 2.81438,-9.41693 3.79795,-25.16673 1.95605,-31.32221 -1.85702,-6.20602 -6.65463,-9.33926 -14.32072,-9.35259 -8.29454,-0.0147 -13.41028,3.68251 -16.49591,11.92099 -3.48614,9.30776 -4.3958,29.16092 -1.58064,34.49736 2.94384,5.58041 6.978,7.62461 14.31623,7.25435 3.33307,-0.16818 5.57591,-0.69116 7.74395,-1.8057 z m -11.42439,-8.33515 c -2.02426,-2.02213 -2.2666,-5.47838 -1.06923,-15.24814 1.8317,-14.94538 4.3142,-20.15966 9.03446,-18.97618 2.96115,0.74242 4.04634,3.24478 3.88382,8.95583 -0.16087,5.65308 -1.72192,16.89234 -2.88471,20.76931 -1.56561,5.2201 -6.00981,7.45064 -8.96434,4.49918 z m -202.2411,-66.85367 c 3.77838,-1.74491 6.44071,-1.72441 10.60737,0.0816 2.25838,0.97891 4.65932,1.46137 7.27249,1.46137 2.61315,0 5.01409,-0.48246 7.27246,-1.46137 1.85428,-0.80374 4.28696,-1.46136 5.40596,-1.46136 1.11901,0 3.55171,0.65762 5.40598,1.46136 2.25837,0.97891 4.65931,1.46137 7.27247,1.46137 2.61315,0 5.01409,-0.48246 7.27247,-1.46137 4.3284,-1.87617 6.20237,-1.83946 11.66778,0.2285 5.22805,1.97818 9.76676,1.87944 14.54383,-0.31643 3.70108,-1.70127 6.69342,-1.70326 10.40282,-0.007 4.55033,2.08095 8.74346,2.2679 13.32861,0.59427 6.18084,-2.25607 7.58465,-2.2903 13.00107,-0.31688 5.64105,2.05524 9.69894,1.97831 14.63143,-0.27739 3.70939,-1.69639 6.70172,-1.6944 10.40281,0.007 4.77708,2.19587 9.31579,2.29461 14.54383,0.31643 2.45637,-0.92942 5.14613,-1.68986 5.97726,-1.68986 1.48423,0 3.53545,-2.12949 3.53545,-3.67035 0,-2.87665 -5.48334,-3.70007 -10.24924,-1.53911 -4.78735,2.1707 -6.68883,2.23775 -11.08163,0.39078 -4.98599,-2.09637 -10.82653,-2.2493 -14.92542,-0.39078 -4.78735,2.1707 -6.68884,2.23775 -11.08164,0.39078 -5.38654,-2.2648 -10.46759,-2.2648 -15.85415,0 -4.39278,1.84697 -6.29425,1.77992 -11.08162,-0.39078 -3.95892,-1.79506 -9.10111,-1.65899 -14.53617,0.38463 -4.73178,1.77918 -6.84834,1.75248 -10.34203,-0.13037 -1.07279,-0.57816 -4.01035,-1.19564 -6.52792,-1.37217 -3.82415,-0.26812 -5.16065,-0.0703 -8.12201,1.20234 -1.94958,0.8378 -4.57335,1.52327 -5.83062,1.52327 -1.25726,0 -3.88105,-0.68547 -5.83062,-1.52327 -2.96135,-1.27261 -4.29787,-1.47046 -8.12202,-1.20234 -2.51757,0.17653 -5.45512,0.79401 -6.5279,1.37217 -3.53528,1.90527 -5.67617,1.93463 -9.9528,0.13652 -5.33895,-2.24479 -10.47438,-2.26194 -15.72918,-0.0526 -2.12403,0.89306 -4.31838,1.62374 -4.87632,1.62374 -0.55795,0 -2.7523,-0.73068 -4.87632,-1.62374 -4.11202,-1.72892 -8.98625,-2.12954 -10.27277,-0.84434 -2.07417,2.07197 0.23754,5.71556 3.62625,5.71556 0.83405,0 2.74386,0.54672 4.24402,1.21496 1.50019,0.66821 3.16646,1.39365 3.70285,1.61209 1.85589,0.7558 8.78927,-0.10167 11.70317,-1.44735 z M 348.9746,185.0438 c 1.77839,-1.24432 1.94239,-5.2134 0.4557,-11.03051 -7.50191,-29.35384 -50.92585,-51.36567 -97.51238,-49.42956 -11.10252,0.46142 -15.76048,1.06643 -26.33215,3.42022 -33.80317,7.52626 -59.47156,28.77652 -61.53382,50.9424 -0.35984,3.86759 -0.25295,4.49053 0.982,5.72422 l 1.38578,1.38432 h 90.55493 c 80.90699,0 90.70888,-0.10766 91.99994,-1.01109 z m -177.72985,-8.56897 c 0.23019,-1.33959 1.59806,-4.85603 3.03976,-7.81432 4.44842,-9.12806 14.98437,-18.65304 27.71874,-25.05905 32.43293,-16.31538 75.32902,-16.71435 108.46057,-1.00875 11.23361,5.32515 21.63488,13.61092 27.06198,21.5579 2.61631,3.83108 5.74188,11.1665 5.74188,13.47566 0,1.27276 -0.7653,1.28417 -86.22072,1.28417 h -86.22072 z m 123.90989,-6.00785 c 0.71519,-0.71444 1.30035,-1.52622 1.30035,-1.80396 0,-1.32105 -2.18328,-3.392 -3.57597,-3.392 -1.39269,0 -3.57597,2.07095 -3.57597,3.392 0,0.88067 2.56105,3.10295 3.57597,3.10295 0.5364,0 1.56042,-0.58454 2.27562,-1.29899 z m -67.95457,-3.00438 c 2.8066,-2.80366 -1.25366,-7.14198 -4.19531,-4.48262 -1.58066,1.42897 -1.69266,3.12501 -0.29833,4.51789 1.31654,1.31516 3.15625,1.30074 4.49364,-0.0353 z m -28.53681,-3.81531 c 0.98657,-1.50417 0.98657,-1.74334 0,-3.2475 -0.65711,-1.00182 -1.67615,-1.62374 -2.6605,-1.62374 -0.98437,0 -2.00339,0.62192 -2.66049,1.62374 -0.98659,1.50416 -0.98659,1.74333 0,3.2475 0.6571,1.00181 1.67612,1.62373 2.66049,1.62373 0.98435,0 2.00339,-0.62192 2.6605,-1.62373 z m 61.11657,0 c 0.98657,-1.50417 0.98657,-1.74334 0,-3.2475 -0.65712,-1.00182 -1.67615,-1.62374 -2.66049,-1.62374 -0.98439,0 -2.00341,0.62192 -2.66051,1.62374 -0.98657,1.50416 -0.98657,1.74333 0,3.2475 0.6571,1.00181 1.67612,1.62373 2.66051,1.62373 0.98434,0 2.00337,-0.62192 2.66049,-1.62373 z m 58.08769,-0.44275 c 0.89055,-1.59017 0.86953,-1.85863 -0.24158,-3.0851 -1.59039,-1.75553 -3.93529,-1.71041 -5.20477,0.10002 -1.30712,1.86423 -1.27922,2.18665 0.3282,3.7924 1.73365,1.73183 3.88627,1.39223 5.11815,-0.80743 z M 214.50015,154.5936 c 1.34932,-1.62412 0.56938,-4.48792 -1.41058,-5.17938 -3.22794,-1.12728 -5.77669,2.70618 -3.38667,5.09372 1.2776,1.27626 3.77111,1.32079 4.79725,0.0858 z m 87.34896,-3.67335 c 1.04613,-1.67022 0.004,-4.41052 -1.85426,-4.87645 -1.81649,-0.45544 -4.19003,1.17428 -4.19003,2.87696 0,2.86543 4.55758,4.37311 6.04429,1.99949 z m -30.05808,-2.55898 c 1.42533,-0.76202 1.71368,-3.80823 0.4774,-5.04321 -0.42912,-0.42868 -1.6057,-0.77939 -2.61464,-0.77939 -2.58228,0 -3.73224,2.52211 -2.20888,4.8446 1.16442,1.77528 2.35409,2.04297 4.34612,0.978 z m -28.60775,-3.24749 c 2.76781,-1.47973 0.88391,-6.08458 -2.33846,-5.71595 -2.60217,0.29767 -3.69504,3.14148 -1.94826,5.06964 1.33519,1.47382 2.43012,1.6389 4.28672,0.64631 z M 68.59944,155.46819 c 0.571943,-1.10486 0.945178,-2.07794 0.829423,-2.16241 -0.115697,-0.0845 -2.337937,-1.82836 -4.938136,-3.87534 l -4.727637,-3.72176 1.114749,-1.88514 c 0.658371,-1.11337 1.396059,-1.67898 1.801848,-1.38154 0.377912,0.27698 2.629041,2.01849 5.002524,3.87003 l 4.315425,3.36644 1.048529,-1.59859 c 0.576693,-0.8792 1.04064,-1.97419 1.031005,-2.4333 -0.01554,-0.74167 -21.079079,-17.3855 -22.674417,-17.91673 -0.350976,-0.11688 -1.098194,0.67627 -1.660504,1.76251 l -1.022368,1.97497 4.795883,3.80711 c 4.726567,3.7521 4.782773,3.8321 3.889254,5.53566 -0.498638,0.9507 -1.116699,1.7262 -1.373475,1.72334 -0.256777,-0.003 -2.514928,-1.59934 -5.018111,-3.54773 l -4.551233,-3.54255 -1.132889,1.43687 c -0.623079,0.79028 -1.06047,1.86216 -0.971975,2.38195 0.152616,0.89642 21.737925,18.18357 22.731273,18.20493 0.259007,0.006 0.938888,-0.89385 1.510832,-1.99872 z m 389.82555,-6.25357 c 6.3949,-4.54432 11.62707,-8.5003 11.62707,-8.79104 0,-1.11812 -2.14596,-3.73042 -3.06448,-3.73042 -1.53787,0 -28.7945,7.33286 -28.79093,7.74564 9.9e-4,0.20518 0.66009,1.19065 1.46289,2.18992 1.45963,1.81682 1.45978,1.81685 4.31193,0.80933 2.64941,-0.9359 2.9138,-0.92653 3.71783,0.13169 1.34672,1.77237 1.08588,2.5465 -1.36867,4.06192 -1.25159,0.7727 -2.27562,1.54174 -2.27562,1.70896 0,0.63914 2.00246,4.1365 2.36841,4.1365 0.21148,0 5.61668,-3.71809 12.01157,-8.26243 z m -6.79751,-3.06347 c -0.33466,-0.87119 0.73934,-1.37509 7.3716,-3.4586 0.53639,-0.16851 -0.54925,0.75088 -2.41253,2.04308 -3.74201,2.59514 -4.43045,2.79165 -4.95907,1.41552 z m -359.993835,-23.40534 1.511227,-1.60694 -1.765143,-2.66451 c -1.665724,-2.51447 -1.706989,-2.75316 -0.732717,-4.23853 0.567838,-0.8657 1.131731,-1.57401 1.253116,-1.57401 0.121415,0 1.35371,0.89945 2.738507,1.99879 l 2.517788,1.9988 1.481957,-1.72106 c 0.815068,-0.94658 1.318109,-1.98588 1.117846,-2.30956 -0.200249,-0.32368 -5.344658,-4.42644 -11.432033,-9.11724 l -11.067946,-8.528745 -1.617861,1.518317 c -0.889823,0.835076 -1.490772,2.003809 -1.335424,2.597201 0.358204,1.368347 14.941628,25.186297 15.445179,25.225377 0.20585,0.0159 1.054337,-0.69408 1.885504,-1.57789 z m -6.221063,-12.89239 c -4.134432,-6.34962 -4.112905,-6.1903 -0.424133,-3.13897 3.626423,2.99976 3.882979,3.4478 2.588717,4.52082 -0.61158,0.50702 -1.164534,0.15403 -2.164584,-1.38185 z m 349.052568,5.62777 c 6.16292,-4.16491 11.45198,-7.78706 11.75347,-8.04927 0.66026,-0.57421 -1.37396,-3.86305 -2.38938,-3.86305 -0.68776,0 -20.99993,13.45441 -23.36321,15.47535 -1.09077,0.93277 -1.07705,1.05694 0.27589,2.49557 0.78306,0.83267 1.66996,1.51395 1.97084,1.51395 0.30089,0 5.58947,-3.40764 11.75239,-7.57255 z m -30.47043,-20.355768 1.87762,-6.494968 h 2.86422 c 5.25047,0 9.95157,-3.911393 9.95157,-8.279873 0,-1.915845 -0.51987,-2.832334 -2.89756,-5.108192 -5.18886,-4.966588 -4.14259,-5.361845 -15.90652,6.009316 -10.92262,10.557942 -11.09802,10.839922 -7.82958,12.587311 0.86319,0.461483 2.00835,-0.223108 5.21999,-3.120571 2.26281,-2.041454 3.91602,-3.19075 3.67377,-2.553985 -0.24224,0.63675 -1.07512,3.245066 -1.85084,5.796269 l -1.41038,4.638523 1.88573,1.507328 c 1.03715,0.82905 2.03391,1.5088 2.21503,1.51057 0.18112,0.001 1.17426,-2.919505 2.20695,-6.491728 z m 1.68988,-11.006314 c -0.80767,-0.538006 -0.44404,-1.181815 2.11628,-3.746891 2.57136,-2.576092 3.28247,-2.977706 4.22616,-2.386775 0.62402,0.390759 1.2199,1.275886 1.32418,1.966923 0.3985,2.640998 -5.30416,5.740344 -7.66662,4.166743 z m -284.40706,9.657565 c 1.41517,-1.562102 1.62241,-1.079144 -4.53641,-10.572239 -2.05201,-3.162933 -3.48509,-5.598987 -3.18459,-5.413464 0.30049,0.185521 3.02233,3.256932 6.04852,6.825347 l 5.50216,6.488054 1.80114,-1.28119 c 0.99062,-0.704644 1.79771,-1.480481 1.79348,-1.724083 -0.004,-0.243587 -1.45518,-4.376126 -3.22439,-9.183427 -1.7692,-4.807301 -3.1555,-8.801163 -3.08067,-8.875254 0.0749,-0.07412 2.03782,3.493137 4.36219,7.927183 2.32438,4.434046 4.51873,8.052836 4.87632,8.041777 0.3576,-0.01172 1.31795,-0.576384 2.13414,-1.256273 l 1.48394,-1.236147 -7.33554,-12.700632 c -4.03454,-6.985352 -7.48183,-12.695387 -7.66061,-12.688941 -0.17881,0.0059 -1.29165,0.812823 -2.47296,1.791979 l -2.14787,1.780289 3.22282,8.756543 c 1.77257,4.81612 3.53646,9.560315 3.91978,10.542678 0.3833,0.982364 0.59573,1.786121 0.47206,1.786121 -0.12377,0 -3.35535,-3.65342 -7.18147,-8.118712 -3.82612,-4.465276 -7.1555,-8.109468 -7.39861,-8.098173 -0.62201,0.02885 -4.01799,3.072392 -4.01799,3.600964 0,1.060615 14.05274,24.90943 14.69074,24.931608 0.39157,0.01318 1.2618,-0.5822 1.93382,-1.324008 z m 247.97973,-19.410624 1.37143,-1.923975 -3.27769,-1.659191 c -1.80273,-0.912563 -3.27768,-1.791862 -3.27768,-1.954018 0,-0.162143 0.91771,-1.595398 2.03933,-3.184995 l 2.03932,-2.890196 2.80356,1.360657 2.80357,1.360659 1.31215,-1.574568 c 0.72169,-0.866012 1.32189,-1.787834 1.33378,-2.048486 0.0117,-0.260653 -1.14884,-1.070429 -2.57941,-1.799493 l -2.6011,-1.325576 1.71222,-2.584601 c 0.9417,-1.421536 1.97755,-2.584602 2.30188,-2.584602 0.32431,0 1.7306,0.581452 3.1251,1.292118 l 2.53543,1.292133 1.41066,-1.979024 c 0.77586,-1.088447 1.3056,-2.077739 1.17719,-2.198412 -0.71324,-0.670221 -8.90377,-4.901783 -9.48783,-4.901783 -0.82617,0 -16.56559,21.847247 -16.67621,23.147583 -0.0726,0.852857 8.16521,5.924488 9.79443,6.029985 0.42263,0.0274 1.38557,-0.816031 2.13987,-1.874215 z M 162.93941,67.865515 c 6.00662,-3.441444 7.80551,-7.413407 5.76947,-12.739098 -0.93613,-2.448694 -1.83022,-3.424349 -4.75166,-5.185228 -0.10281,-0.06197 0.15342,-0.858717 0.56934,-1.770608 1.7769,-3.895776 -1.62118,-10.213339 -5.47909,-10.186562 -2.06993,0.01465 -6.29346,1.688884 -8.38578,3.32471 -1.05443,0.824381 -0.85788,1.723029 2.97218,13.589012 4.85648,15.045981 4.80268,14.899014 5.45097,14.891237 0.27943,-0.0029 2.01398,-0.868912 3.85457,-1.923463 z m -2.5776,-8.681853 c -0.60172,-1.906807 -1.09401,-3.806583 -1.09401,-4.221717 0,-1.301317 3.7872,-0.881891 4.52836,0.501501 1.35549,2.530125 0.37918,7.187163 -1.50671,7.187163 -0.4585,0 -1.32596,-1.560125 -1.92764,-3.466947 z m -2.56833,-8.019305 c -0.16669,-0.291181 -0.8158,-2.09813 -1.44248,-4.015426 -1.16738,-3.571608 -0.85408,-4.59364 1.41703,-4.622761 1.24643,-0.01597 2.80011,2.705729 2.80011,4.905138 0,1.962778 -2.13994,4.841871 -2.77466,3.733049 z M 332.05105,56.2192 c 1.03779,-1.036724 4.1205,-6.662987 6.85045,-12.502806 l 4.96353,-10.617853 -1.76157,-0.782574 c -0.96887,-0.430428 -2.0629,-0.795759 -2.43121,-0.811873 -0.36832,-0.0161 -2.52286,4.040006 -4.7879,9.013581 -2.26506,4.973589 -4.66578,9.942241 -5.33494,11.04144 -1.29727,2.130941 -3.61037,2.693409 -4.2482,1.033002 -0.204,-0.531062 1.85491,-5.839013 4.57535,-11.795465 2.72045,-5.95645 4.83455,-10.941508 4.69803,-11.077899 -0.13652,-0.136377 -1.25205,-0.410712 -2.47891,-0.609608 l -2.23064,-0.361593 -5.07009,11.128011 c -4.33304,9.510305 -5.00777,11.459783 -4.64147,13.410273 0.89218,4.75083 8.2598,6.567316 11.89757,2.933364 z M 205.98619,52.632122 c 3.68951,-1.905913 4.09657,-5.914746 2.10226,-20.704045 -0.66485,-4.930435 -1.36771,-9.123134 -1.5619,-9.317137 -0.19419,-0.193988 -1.25174,-0.155537 -2.35009,0.08541 -2.42898,0.532936 -2.40927,0.08306 -0.6033,13.770299 1.13144,8.574876 1.23883,10.749323 0.57057,11.553665 -1.17988,1.420203 -2.54678,1.222084 -3.24635,-0.470534 -0.33222,-0.803757 -1.22334,-6.27917 -1.98031,-12.167592 -0.75697,-5.88844 -1.45548,-10.78533 -1.55224,-10.881994 -0.0968,-0.09668 -1.10113,0.146484 -2.2319,0.540203 -2.49453,0.868677 -2.49279,0.838282 -0.77637,13.621939 1.42251,10.594388 1.6241,11.372216 3.48187,13.433915 1.5552,1.725943 5.3596,1.976138 8.14776,0.535822 z m 86.50332,-6.056543 c 3.35808,-12.862598 3.34614,-12.502806 0.41457,-12.502806 -2.45086,0 -2.0774,-0.689542 -4.331,7.997028 -0.4685,1.805821 -0.94074,2.416833 -1.74421,2.256667 -1.59754,-0.318454 -1.37986,-5.994682 0.48794,-12.723204 1.85378,-6.678086 2.62171,-7.540525 6.2694,-7.041074 2.86777,0.39265 3.51895,-0.128027 3.51895,-2.813468 0,-1.488478 -1.25269,-1.964859 -5.1669,-1.964859 -5.5218,0 -7.28519,2.351239 -10.17003,13.560331 -3.1067,12.071147 -1.62656,15.524689 6.69704,15.625823 3.37989,0.04101 3.38996,0.03516 4.02424,-2.394438 z m -50.21128,0.226845 c 0.0622,-0.04058 0.35473,-2.555935 0.65019,-5.589787 l 0.53721,-5.516121 2.56283,5.732008 2.56282,5.732023 2.31349,-0.431599 c 1.27242,-0.237378 2.44695,-0.563187 2.61005,-0.724025 0.16309,-0.160839 -1.03102,-2.984443 -2.65357,-6.274657 l -2.95012,-5.982232 2.15572,-1.841167 c 3.95705,-3.379658 4.53079,-10.35767 1.09659,-13.336942 -1.60642,-1.393632 -2.22249,-1.509911 -6.53516,-1.233423 -2.61884,0.167885 -4.89289,0.436478 -5.05343,0.596848 -0.39035,0.38994 -2.17076,28.675495 -1.84241,29.270454 0.19526,0.353802 3.88787,0.02769 4.54579,-0.40138 z m 1.51248,-20.523592 c 0,-4.354139 0.0654,-4.546472 1.54583,-4.546472 2.26501,0 3.24117,1.538972 2.78428,4.389588 -0.35617,2.222143 -2.33548,4.703356 -3.75196,4.703356 -0.31799,0 -0.57815,-2.045923 -0.57815,-4.546472 z"
       id="path1" /></g></svg>
